# xmcd CD database file
#
# Track frame offsets:
#	150
#	17601
#	35718
#	52192
#	68379
#	87215
#	104062
#	117771
#	136970
#	152865
#
# Disc length: 2244 seconds
#
# Revision: 0
# Processed by: cddbd v1.5.2PL0 Copyright (c) Steve Scherf et al.
# Submitted via: CDex 1.70beta2
#
DISCID=8308c20a
DTITLE=GROSS GROLLAND - WHAT DOESN'T KILL ME MAKES A BIG MISTAKE
DYEAR=2013
DGENRE=Thrash Metal
TTITLE0=KAMIKAZE
TTITLE1=UNDER SIGHT
TTITLE2=DIE
TTITLE3=BYE
TTITLE4=IT
TTITLE5=VOICES
TTITLE6=648
TTITLE7=POLICEMAN TROPILLO
TTITLE8=FRIDAY
TTITLE9=FRIENDSHIP
EXTD=YEAR: 2013
EXTT0=
EXTT1=
EXTT2=
EXTT3=
EXTT4=
EXTT5=
EXTT6=
EXTT7=
EXTT8=
EXTT9=
PLAYORDER=
